# xmcd
#
# Track frame offsets:
#	150
#	21298
#	41309
#	60033
#	80497
#	97559
#	120048
#	139141
#	153776
#	207515
#	231965
#	251972
#
# Disc length: 3628 seconds
#
# Revision: 1
# Processed by: cddbd v1.5.1PL0 Copyright (c) Steve Scherf et al.
# Submitted via: EasyCDDAExtractor 7.0.4.1
#
DISCID=880e2a0c
DTITLE=Black Reign - Real Hip-Hop The Album
DYEAR=2004
DGENRE=Hip-Hop
TTITLE0=Real Hip-Hop
TTITLE1=Keep An Eye (Land of Hate Remix)
TTITLE2=American Pie
TTITLE3=This Ain't Livin'
TTITLE4=What Would You Do?
TTITLE5=Land Of Hate
TTITLE6=Make Your Move!
TTITLE7=What You In The Game For?
TTITLE8=Please Respect It
TTITLE9=Real Hip-Hip (Instrumental)
TTITLE10=Keep An Eye (Instrumental)
TTITLE11=American Pie (Instrumental)
EXTD=
EXTT0=
EXTT1=
EXTT2=
EXTT3=
EXTT4=
EXTT5=
EXTT6=
EXTT7=
EXTT8=
EXTT9=
EXTT10=
EXTT11=
PLAYORDER=
